<svg version="1.1" xmlns="http://www.w3.org/2000/svg" xmlns:xlink="http://www.w3.org/1999/xlink" x="0px" y="0px" width="48px" height="48px" viewBox="0 0 48 48" enable-background="new 0 0 48 48" xml:space="preserve">
<path fill="#202020" d="M46.233,13.314c-0.154-0.741-0.501-1.439-0.963-1.952c-0.491-0.549-0.75-0.72-2.952-1.963 c-0.196-0.109-0.782-0.445-1.3-0.746c-0.792-0.461-4.661-2.693-5.453-3.144c-0.13-0.073-0.663-0.378-1.186-0.679 c-0.523-0.306-1.104-0.647-1.301-0.756c-0.196-0.109-1.211-0.684-2.252-1.279c-1.041-0.601-2.44-1.399-3.099-1.776 c-1.46-0.834-1.9-0.979-2.982-0.922c-0.974,0.051-1.14,0.129-3.418,1.435c-0.979,0.559-1.942,1.103-2.134,1.211 c-0.197,0.109-0.658,0.373-1.031,0.591c-0.368,0.217-0.787,0.466-0.942,0.554c-0.254,0.14-1.58,0.901-6.126,3.517 c-0.871,0.502-1.683,0.974-1.818,1.046C9.147,8.523,8.35,8.979,7.5,9.472c-0.849,0.492-1.672,0.963-1.843,1.056 c-0.502,0.274-1.248,1.067-1.533,1.631C3.601,13.2,3.637,12.543,3.637,23.936c0,10.043,0.005,10.669,0.223,11.245 c0.372,0.967,0.838,1.585,1.59,2.097C5.703,37.448,5.926,37.6,5.946,37.6c0.021,0,0.425,0.222,0.912,0.502 c0.487,0.284,0.896,0.512,0.912,0.512c0.015,0,0.258,0.146,0.533,0.312c0.274,0.165,0.658,0.395,0.854,0.502 c0.45,0.255,1.859,1.063,2.175,1.243c0.129,0.078,0.595,0.342,1.03,0.59c0.435,0.249,0.891,0.519,1.021,0.591 c0.28,0.166,2.216,1.274,2.729,1.563c0.197,0.109,0.58,0.337,0.854,0.504c0.274,0.166,0.518,0.299,0.534,0.299 c0.015,0,0.321,0.177,0.679,0.39c0.357,0.213,0.813,0.47,1.01,0.58c0.197,0.109,1.124,0.632,2.056,1.176 c2.036,1.18,2.207,1.264,2.999,1.445c0.559,0.129,0.741,0.139,1.311,0.04c0.445-0.078,1.243-0.346,1.419-0.477 c0.083-0.061,0.808-0.48,1.522-0.885c0.232-0.131,1.16-0.664,2.057-1.187c0.896-0.522,1.786-1.034,1.978-1.145 c0.315-0.177,3.133-1.791,3.755-2.153c0.445-0.259,1.812-1.048,2.165-1.243c0.191-0.109,0.527-0.306,0.745-0.437 c0.472-0.278,0.823-0.477,1.311-0.746c0.197-0.107,0.657-0.373,1.03-0.59c0.369-0.217,0.87-0.508,1.108-0.641 c0.238-0.131,0.616-0.354,0.846-0.497c0.228-0.146,0.434-0.266,0.455-0.266c0.146,0,0.952-0.622,1.3-0.999 c0.497-0.544,0.813-1.197,0.978-1.989C46.404,33.73,46.415,14.19,46.233,13.314z M37.223,31.52c-0.28,0.487-0.959,1.383-1.466,1.942 c-1.896,2.097-4.516,3.692-7.059,4.294c-0.218,0.052-0.519,0.124-0.668,0.165c-0.15,0.042-0.519,0.1-0.824,0.146 c-0.627,0.088-2.48,0.171-3.076,0.124c-2.792-0.213-5.604-1.285-7.748-2.963c-0.761-0.595-1.999-1.833-2.485-2.485 c-0.197-0.259-0.378-0.492-0.399-0.513c-0.021-0.021-0.208-0.29-0.409-0.601c-1.036-1.58-1.802-3.61-2.077-5.516 c-0.891-6.127,2.16-11.979,7.738-14.833c1.605-0.824,3.444-1.3,5.318-1.43v-0.01c1.875-0.135,3.797,0.083,5.573,0.668 c2.956,0.979,5.613,2.999,7.348,5.593c0.245,0.368,0.437,0.688,0.437,0.72s-0.197,0.166-0.445,0.3 c-0.249,0.135-0.602,0.332-0.777,0.435c-0.177,0.104-0.674,0.394-1.108,0.643c-0.435,0.249-0.891,0.512-1.02,0.59 c-0.389,0.228-1.787,1.036-2.213,1.274c-0.217,0.125-0.434,0.223-0.486,0.223c-0.047,0-0.175-0.119-0.269-0.274 c-0.461-0.746-1.523-1.745-2.378-2.232c-0.513-0.291-1.278-0.591-1.963-0.777c-0.771-0.202-2.589-0.176-3.418,0.052 c-3.413,0.927-5.634,3.988-5.396,7.458c0.124,1.808,0.911,3.485,2.196,4.682c0.741,0.689,1.228,1.025,1.978,1.368 c1.005,0.455,1.704,0.601,2.978,0.601c1.154,0,1.414-0.036,2.408-0.368c1.372-0.46,2.734-1.492,3.518-2.652 c0.16-0.237,0.325-0.408,0.398-0.397c0.062,0.01,1.438,0.787,3.056,1.719l2.941,1.699L37.223,31.52z M39.13,24.807h-1.614v1.613 h-1.613v-1.613h-1.613v-1.613h1.613V21.58h1.613v1.614h1.614V24.807z M45.18,24.807h-1.613v1.613h-1.613v-1.613h-1.614v-1.613h1.614 V21.58h1.613v1.614h1.613V24.807z"/>
</svg>