<svg version="1.1" xmlns="http://www.w3.org/2000/svg" xmlns:xlink="http://www.w3.org/1999/xlink" x="0px" y="0px" width="48px" height="48px" viewBox="0 0 48 48" enable-background="new 0 0 48 48" xml:space="preserve">
<path fill="#202020" d="M0,0v48h48V0H0z M26.141,37.438c0,4.671-2.739,6.797-6.736,6.797c-3.611,0-5.703-1.869-6.766-4.121 l3.671-2.223c0.708,1.258,1.353,2.32,2.903,2.32c1.482,0,2.417-0.58,2.417-2.834V22.04h4.511V37.438z M36.798,44.242 c-4.188,0-6.896-1.996-8.22-4.612l3.666-2.13c0.967,1.579,2.225,2.739,4.449,2.739c1.869,0,3.063-0.935,3.063-2.225 c0-1.547-1.227-2.095-3.283-2.995l-1.128-0.483c-3.255-1.386-5.417-3.124-5.417-6.796c0-3.383,2.578-5.958,6.605-5.958 c2.868,0,4.93,0.998,6.416,3.611l-3.514,2.255c-0.772-1.387-1.607-1.933-2.902-1.933c-1.32,0-2.158,0.838-2.158,1.933 c0,1.354,0.838,1.901,2.773,2.739l1.127,0.483c3.833,1.643,5.996,3.318,5.996,7.086C44.271,42.018,41.082,44.242,36.798,44.242z"/>
</svg>