<?xml version="1.0" encoding="UTF-8" standalone="no"?>
<svg width="24px" height="24px" viewBox="0 0 32 32" version="1.1" xmlns="http://www.w3.org/2000/svg" xmlns:xlink="http://www.w3.org/1999/xlink" xml:space="preserve" xmlns:serif="http://www.serif.com/" style="fill-rule:evenodd;clip-rule:evenodd;stroke-linejoin:round;stroke-miterlimit:2;">
<g transform="matrix(2.00195,0,0,2.00195,-16.8189,-16.3259)">
<path d="M12.6,13C13.1,12.8 14,12.9 14.3,13.5C14.5,14 14.7,14.7 14.7,14.6C14.7,14.2 14.7,13.4 14.8,13C14.9,12.7 15.1,12.4 15.5,12.3C15.8,12.2 16.1,12.2 16.4,12.2C16.7,12.3 17,12.5 17.2,12.7C17.6,13.3 17.6,14.6 17.6,14.5C17.7,14.2 17.7,13.3 17.9,12.9C18,12.7 18.4,12.5 18.6,12.4C18.9,12.3 19.3,12.3 19.6,12.4C19.8,12.4 20.2,12.7 20.3,12.9C20.5,13.2 20.6,14.2 20.7,14.6C20.7,14.7 20.8,14.2 21,13.9C21.4,13.3 22.8,13.1 22.9,14.5L22.9,15.6L22.9,16.8C22.9,17.2 22.8,18.1 22.7,18.5C22.6,18.8 22.3,19.5 22,19.9C22,19.9 20.9,21.1 20.8,21.7C20.7,22.3 20.7,22.3 20.7,22.7C20.7,23.1 20.8,23.6 20.8,23.6C20.8,23.6 20,23.7 19.6,23.6C19.2,23.5 18.7,22.8 18.6,22.5C18.4,22.2 18.1,22.2 17.9,22.5C17.7,22.9 17.2,23.6 16.9,23.6C16.2,23.7 14.8,23.6 13.8,23.6C13.8,23.6 14,22.6 13.6,22.2C13.3,21.9 12.8,21.4 12.5,21.1L11.7,20.2C11.4,19.8 10.7,19.3 10.5,18.2C10.3,17.3 10.3,16.8 10.5,16.4C10.7,16 11.2,15.8 11.4,15.8C11.6,15.8 12.1,15.8 12.3,15.9C12.5,16 12.6,16.1 12.8,16.3C13,16.6 13.1,16.8 13,16.4C12.9,16.1 12.7,15.8 12.6,15.4C12.5,15 12.252,14.483 12.13,13.917C12.091,13.737 12.18,13.331 12.6,13" style="fill:rgb(32,32,32);fill-rule:nonzero;stroke:white;stroke-width:0.5px;"/>
</g></svg>