<?xml version="1.0" standalone="no"?>
<svg version="1.0" xmlns="http://www.w3.org/2000/svg" width="48.000000pt" height="48.000000pt" viewBox="0 0 48 48" preserveAspectRatio="xMidYMid meet">

<g transform="translate(0.000000,48.000000) scale(0.100000,-0.100000)"
fill="#202020" stroke="none">
<path d="M195 473 c-78 -19 -152 -81 -174 -145 -9 -26 -8 -30 15 -38 42 -16 57 -11 114 41 l55 51 -35 29 c-42 35 -20 39 26 4 31 -24 34 -24 74 -10 24 8 52 15 64 14 12 0 0 -8 -29 -18 -29 -11 -50 -24 -49 -32 1 -8 22 -44 47 -80 49 -69 67 -79 150 -79 33 0 35 20 11 99 -33 111 -162 190 -269 164z"/>
<path d="M155 317 l-49 -43 99 -22 c55 -11 101 -19 103 -17 6 6 -83 124 -93 125 -6 0 -33 -19 -60 -43z"/>
<path d="M0 247 c0 -55 33 -132 74 -173 40 -41 117 -74 172 -74 34 0 101 27 140 56 32 25 92 110 83 118 -2 2 -27 7 -56 11 l-51 7 13 -39 c8 -21 14 -49 14 -63 l0 -25 -11 25 c-5 14 -18 43 -28 66 l-18 41 -109 21 c-145 29 -152 29 -159 -8 -4 -16 -11 -30 -16 -30 -6 0 -8 9 -5 21 3 12 2 32 -3 45 -12 31 -40 32 -40 1z"/>
</g>
</svg>
